<svg width="150" height="150" viewBox="0 0 150 150" fill="none" xmlns="http://www.w3.org/2000/svg">
<g id="ico / 24 / communication / call_talking">
<path id="Icon color" fill-rule="evenodd" clip-rule="evenodd" d="M81.25 28.1249V21.8749C81.2353 21.0087 81.5737 20.1738 82.1875 19.5624C82.8731 18.9584 83.7778 18.6644 84.6875 18.7499C109.68 20.4165 129.583 40.3195 131.25 65.3124C131.301 66.18 131.009 67.033 130.437 67.6874C129.826 68.3012 128.991 68.6397 128.125 68.6249H121.875C120.242 68.6302 118.881 67.3775 118.75 65.7499C117.326 47.3181 102.682 32.6739 84.25 31.2499C82.5731 31.1828 81.2487 29.8032 81.25 28.1249ZM82.3125 44.6249C81.6299 45.2245 81.2421 46.0914 81.25 46.9999V53.2499C81.2246 54.7439 82.2811 56.0382 83.75 56.3124C88.7754 57.2324 92.7351 61.1179 93.75 66.1249C94.0242 67.5938 95.3185 68.6503 96.8125 68.6249H103.063C103.971 68.6328 104.838 68.245 105.438 67.5624C106.026 66.8705 106.298 65.9639 106.188 65.0624C104.555 54.0614 95.9337 45.4144 84.9375 43.7499C84.0177 43.6734 83.1088 43.9915 82.4375 44.6249H82.3125ZM119.312 127.562C116.964 129.925 113.769 131.253 110.438 131.25H106.25C95.8081 131.205 85.5414 128.564 76.375 123.562L73.5625 122C54.1297 111.552 38.1981 95.6202 27.75 76.1874L26.1875 73.3749C21.3134 64.2604 18.759 54.0858 18.75 43.7499V39.5624C18.7474 36.2309 20.0748 33.0361 22.4375 30.6874L33 20.1249C34.0258 19.0912 35.4738 18.5929 36.9185 18.7765C38.3632 18.9602 39.6405 19.8049 40.375 21.0624L54.4375 45.1874C55.8596 47.643 55.4489 50.7484 53.4375 52.7499L41.625 64.5624C40.644 65.5326 40.4154 67.0313 41.0625 68.2499L43.25 72.3749C51.1065 86.9277 63.0579 98.8574 77.625 106.687L81.75 108.937C82.9686 109.585 84.4673 109.356 85.4375 108.375L97.25 96.5624C99.2515 94.551 102.357 94.1403 104.812 95.5624L128.938 109.625C130.195 110.359 131.04 111.637 131.223 113.081C131.407 114.526 130.909 115.974 129.875 117L119.312 127.562Z" fill="#BAAC96"/>
</g>
</svg>
