<svg width="150" height="150" viewBox="0 0 150 150" fill="none" xmlns="http://www.w3.org/2000/svg">
<g id="ico / 24 / communication / email_outlined">
<path id="Icon color" fill-rule="evenodd" clip-rule="evenodd" d="M125 25H25C18.0964 25 12.5 30.5964 12.5 37.5V112.5C12.5 119.404 18.0964 125 25 125H125C131.904 125 137.5 119.404 137.5 112.5V37.5C137.5 30.5964 131.904 25 125 25ZM125 37.5V55.625L79.0625 87.8125C76.6195 89.508 73.3805 89.508 70.9375 87.8125L25 55.625V37.5H125ZM25 68.75V112.5H125V68.75L85.3125 96.5C79.119 100.829 70.881 100.829 64.6875 96.5L25 68.75Z" fill="#BAAC96"/>
</g>
</svg>
