<svg width="150" height="150" viewBox="0 0 150 150" fill="none" xmlns="http://www.w3.org/2000/svg">
<g id="ico / 24 / ui / home_vs_2_outlined">
<path id="Icon color" fill-rule="evenodd" clip-rule="evenodd" d="M89.3125 20.5625L135.687 66.9375C136.842 68.1016 137.493 69.6729 137.5 71.3125V78.125C137.5 79.8509 136.101 81.25 134.375 81.25H125V125C125 128.452 122.202 131.25 118.75 131.25H87.5C84.0482 131.25 81.25 128.452 81.25 125V95.3125C81.25 94.4496 80.5504 93.75 79.6875 93.75H70.3125C69.4496 93.75 68.75 94.4496 68.75 95.3125V125C68.75 128.452 65.9518 131.25 62.5 131.25H31.25C27.7982 131.25 25 128.452 25 125V81.25H15.625C13.8991 81.25 12.5 79.8509 12.5 78.125V71.3125C12.5069 69.6729 13.1578 68.1016 14.3125 66.9375L60.6875 20.5625C61.8516 19.4078 63.4229 18.7569 65.0625 18.75H84.9375C86.5771 18.7569 88.1484 19.4078 89.3125 20.5625ZM93.75 118.75H112.5V61.4375L82.3125 31.25H67.6875L37.5 61.4375V118.75H56.25V87.5C56.25 84.0482 59.0482 81.25 62.5 81.25H87.5C90.9518 81.25 93.75 84.0482 93.75 87.5V118.75Z" fill="#BAAC96"/>
</g>
</svg>
